<svg xmlns="http://www.w3.org/2000/svg" xmlns:xlink="http://www.w3.org/1999/xlink" width="344" height="188pt" viewBox="0 0 257.5 188"><g id="graph0" class="graph" transform="scale(1 1) rotate(0) translate(4 184)"><title>sourcetree</title><polygon fill="#fff" stroke="transparent" points="-4 4 -4 -184 253.5 -184 253.5 4 -4 4"/><g id="node1" class="node"><title>mulle-aba</title><polygon fill="#ff0" stroke="#000" points="171.5 -180 85.5 -180 85.5 -144 171.5 -144 171.5 -180"/><text x="128.5" y="-158.3" font-family="Times,serif" font-size="14" text-anchor="middle">mulle-aba</text></g><g id="node2" class="node"><title>mulle-allocator</title><polygon fill="#d3d3d3" stroke="#000" points="123 -108 0 -108 0 -72 123 -72 123 -108"/><text x="61.5" y="-86.3" font-family="Times,serif" font-size="14" text-anchor="middle">mulle-allocator</text></g><g id="edge1" class="edge"><title>mulle-aba-&gt;mulle-allocator</title><path fill="none" stroke="#000" d="M111.94,-143.7C103.82,-135.22 93.91,-124.86 85.03,-115.58"/><polygon fill="#000" stroke="#000" points="87.31 -112.91 77.87 -108.1 82.26 -117.75 87.31 -112.91"/></g><g id="node3" class="node"><title>mulle-thread</title><polygon fill="#d3d3d3" stroke="#000" points="249.5 -108 141.5 -108 141.5 -72 249.5 -72 249.5 -108"/><text x="195.5" y="-86.3" font-family="Times,serif" font-size="14" text-anchor="middle">mulle-thread</text></g><g id="edge2" class="edge"><title>mulle-aba-&gt;mulle-thread</title><path fill="none" stroke="#000" d="M145.06,-143.7C153.18,-135.22 163.09,-124.86 171.97,-115.58"/><polygon fill="#000" stroke="#000" points="174.74 -117.75 179.13 -108.1 169.69 -112.91 174.74 -117.75"/></g><g id="node4" class="node"><title>mulle-c11</title><polygon fill="#d3d3d3" stroke="#000" points="104.5 -36 18.5 -36 18.5 0 104.5 0 104.5 -36"/><text x="61.5" y="-14.3" font-family="Times,serif" font-size="14" text-anchor="middle">mulle-c11</text></g><g id="edge3" class="edge"><title>mulle-allocator-&gt;mulle-c11</title><path fill="none" stroke="#000" d="M61.5,-71.7C61.5,-63.98 61.5,-54.71 61.5,-46.11"/><polygon fill="#000" stroke="#000" points="65 -46.1 61.5 -36.1 58 -46.1 65 -46.1"/></g><g id="node5" class="node"><title>mintomic</title><polygon fill="#d3d3d3" stroke="#000" points="237 -36 154 -36 154 0 237 0 237 -36"/><text x="195.5" y="-14.3" font-family="Times,serif" font-size="14" text-anchor="middle">mintomic</text></g><g id="edge4" class="edge"><title>mulle-thread-&gt;mintomic</title><path fill="none" stroke="#000" d="M195.5,-71.7C195.5,-63.98 195.5,-54.71 195.5,-46.11"/><polygon fill="#000" stroke="#000" points="199 -46.1 195.5 -36.1 192 -46.1 199 -46.1"/></g></g></svg>